<?xml version="1.0" encoding="UTF-8"?>
<svg width="1440px" height="1081px" viewBox="0 0 1440 1081" version="1.1" xmlns="http://www.w3.org/2000/svg" xmlns:xlink="http://www.w3.org/1999/xlink">
    <!-- Generator: Sketch 52.5 (67469) - http://www.bohemiancoding.com/sketch -->
    <title>Group 37 Copy</title>
    <desc>Created with Sketch.</desc>
    <defs>
        <linearGradient x1="0%" y1="6.74802284%" x2="90.1752983%" y2="76.529718%" id="linearGradient-1">
            <stop stop-color="#246EFC" stop-opacity="0.983865489" offset="0%"></stop>
            <stop stop-color="#0079F9" offset="100%"></stop>
        </linearGradient>
    </defs>
    <g id="Prototype" stroke="none" stroke-width="1" fill="none" fill-rule="evenodd">
        <g id="First-Draft-Sent-Copy" transform="translate(0.000000, -9796.000000)">
            <g id="Group-37-Copy" transform="translate(648.000000, 10463.500000) scale(-1, 1) translate(-648.000000, -10463.500000) translate(-303.000000, 9795.500000)">
                <g id="Group-49-Copy" transform="translate(0.000000, 0.500000)">
                    <g id="Pagination" transform="translate(1400.769801, 1059.513100)" fill="#FFFFFF">
                        <rect id="Rectangle-2" x="0" y="0" width="9.10646623" height="4.2489083" rx="2.12445415"></rect>
                        <rect id="Rectangle-2-Copy" opacity="0.5" x="2.42839099" y="10.3187773" width="4.24968424" height="4.2489083" rx="2.12445415"></rect>
                        <rect id="Rectangle-2-Copy-2" opacity="0.5" x="2.42839099" y="20.6375546" width="4.24968424" height="4.2489083" rx="2.12445415"></rect>
                    </g>
                    <path d="M111,14 C305.341946,-80.553056 465.394113,344.299861 1065.9931,504.592178 C1176.43321,534.067255 1301.37371,556.418376 1443.6214,567.441048 C2054.17049,614.752062 2053.85931,827.962882 1442.68784,1207.07351 C1425.81952,1238.63716 1411.50491,1261.04764 1399.74402,1274.30495 C1340.92965,1340.60262 1283.03508,1326.0167 1239.17147,1306.05313 C1062.72838,1225.74891 367.881736,1095.24155 200,1105 C53.934755,1113.49032 123.839231,1074.24029 100.226673,806.486172 C76.6141158,538.732049 -119.078181,125.939782 111,14 Z" id="Bg" fill="url(#linearGradient-1)"></path>
                    <path d="M1080.94832,985.799427 C1209.90697,998.871609 1277.48438,934.070384 1283.68054,791.395752 L1624.89849,988.396574 L1556.56577,1106.73157 C1309.22449,1103.19388 1150.68369,1103.46782 1080.94336,1107.55337 C976.332868,1113.68171 887.510326,966.191154 1080.94832,985.799427 Z" id="Rectangle-3" fill="#FFFFFF" opacity="0.100000001" transform="translate(1295.847637, 949.567557) scale(1, -1) rotate(-30.000000) translate(-1295.847637, -949.567557) "></path>
                    <path d="M211.613741,817.281513 C238.988526,779.200328 335.866683,802.98557 502.248211,888.637241 L718.463742,1013.35976 C360.21151,1138.80241 170.262998,1174.48015 148.618205,1120.39298 C116.151015,1039.26223 170.551563,874.403292 211.613741,817.281513 Z" id="Rectangle-3-Copy" fill="#FFFFFF" opacity="0.049999997" transform="translate(428.595184, 972.268261) scale(-1, -1) rotate(-30.000000) translate(-428.595184, -972.268261) "></path>
                    <path d="M1423.50336,1070.58703 L1448.52675,1104.71943 L1413.32151,1165.69669 L1413.32151,1165.69669 C1397.5589,1177.00926 1375.61014,1173.40178 1364.29757,1157.63917 C1360.0548,1151.72742 1357.7525,1144.64405 1357.70868,1137.36752 L1357.43806,1092.43041 C1357.31643,1072.23286 1373.59118,1055.7609 1393.78873,1055.63927 C1405.51752,1055.56864 1416.56853,1061.12778 1423.50336,1070.58703 Z" id="Rectangle-3-Copy-2" fill="#FFFFFF" opacity="0.100000001" transform="translate(1402.982068, 1113.963746) rotate(-30.000000) translate(-1402.982068, -1113.963746) "></path>
                    <path d="M1164.35535,1062.66799 L1498.13658,1059.91077 L1454.29071,1135.84672 C1436.36474,1166.89241 1403.1916,1185.96717 1367.34247,1185.84249 L1164.3521,1185.13652 C1130.69708,1185.01947 1103.4766,1157.70304 1103.47797,1124.04782 L1103.47797,1124.04782 C1103.47934,1090.34496 1130.65364,1062.94638 1164.35535,1062.66799 Z" id="Rectangle-3-Copy-3" fill="#FFFFFF" opacity="0.049999997" transform="translate(1300.807274, 1122.876936) rotate(-30.000000) translate(-1300.807274, -1122.876936) "></path>
                </g>
            </g>
        </g>
    </g>
</svg>